<svg width="118" height="94" viewBox="0 0 118 94" fill="none" xmlns="http://www.w3.org/2000/svg">
<g clip-path="url(#clip0_297_904)">
<path d="M46.2286 80.1693C46.2286 80.1693 49.761 78.1795 51.7155 76.6843C53.67 75.189 55.5114 75.1344 60.68 75.3712C65.8486 75.608 69.6445 74.0581 76.7514 76.7456C83.8582 79.4331 87.7056 80.802 89.2361 84.2645C90.7666 87.7271 86.6544 89.4552 68.2662 90.1744C49.8781 90.8937 42.686 89.4372 43.2852 85.9515C43.8844 82.4658 46.2286 80.1693 46.2286 80.1693Z" fill="url(#paint0_radial_297_904)"/>
</g>
<g clip-path="url(#clip1_297_904)">
<path d="M107.821 18.3156C107.13 17.1764 105.609 17.3302 105.127 18.557C102.89 24.1661 98.0711 28.1198 92.0705 28.9209L84.4988 29.9318C74.4663 31.2712 67.4381 40.6825 68.8079 50.943C68.8984 51.6206 69.0607 52.259 69.2148 52.9084C74.6626 47.6786 82.8782 42.7591 95.239 41.1088C96.0719 40.9976 96.8464 41.6036 96.9601 42.4554C97.0738 43.3072 96.4854 44.0951 95.6525 44.2063C71.8584 47.383 63.7605 63.6465 62.2751 69.5492C61.8611 71.2104 62.8397 72.9123 64.469 73.3549C66.1091 73.8059 67.7675 72.8061 68.2017 71.1521C68.2971 70.7847 69.5608 66.2514 73.8359 61.4737C77.4698 65.3137 83.8415 68.5912 91.3872 66.7365C106.099 63.6492 114.738 48.6238 112.51 31.936C111.862 27.0767 110.167 22.1797 107.821 18.3156Z" fill="#8BC02B"/>
</g>
<path d="M100 55.4996C97.5 58.3568 91.4508 62.7427 84 62.9996C69.5 63.4997 85 68.7517 91.4508 66.7604C108.5 61.4977 111.5 48.4997 112.5 41.4996C107 49.4996 103.5 51.4996 100 55.4996Z" fill="#5B9821"/>
<g clip-path="url(#clip2_297_904)">
<path d="M25.6863 2.45957C26.8878 1.36772 28.7617 2.06903 29.0147 3.66576C30.2164 10.978 35.1523 17.2446 42.49 20.2385L51.749 24.0162C64.0171 29.0218 70.1631 42.4142 65.4704 53.9156C65.1605 54.6751 64.7713 55.3643 64.3893 56.0691C59.0284 48.0977 50.0868 39.5386 34.9715 33.3713C33.953 32.9558 32.801 33.397 32.4114 34.3518C32.0218 35.3067 32.5364 36.4279 33.5548 36.8434C62.6511 48.7152 68.1665 70.4694 68.3346 77.8662C68.3769 79.9465 66.6507 81.5963 64.4675 81.5536C62.2684 81.517 60.4654 79.7814 60.3956 77.7026C60.3814 77.2411 60.0973 71.5183 56.0851 64.4769C50.3917 67.7102 41.4074 69.3476 32.425 64.5941C14.759 55.9433 8.20338 35.4479 15.8357 16.7419C18.0581 11.2951 21.6102 6.16289 25.6863 2.45957Z" fill="#8BC02B"/>
<path d="M25.6793 48.9949C28.1897 53.2671 34.8794 60.3634 44.3711 62.5062C62.843 66.6764 41.6889 69.6389 33.9016 65.5154C13.3198 54.6177 12.6362 37.22 13.0576 28.0003C18.1633 39.5973 22.1647 43.0137 25.6793 48.9949Z" fill="#5B9821"/>
</g>
<g clip-path="url(#clip3_297_904)">
<path d="M48.6887 84.0298C48.6887 84.0298 53.7487 77.1698 58.0787 76.8098C62.4087 76.4498 62.1287 78.2498 64.6587 78.2498C67.1887 78.2498 67.4487 77.6398 68.8987 77.6798C70.3487 77.7198 70.1487 77.9498 72.4887 77.9498C74.3287 77.9498 75.1987 77.1698 76.2987 77.1898C77.6087 77.2098 78.7487 78.5598 79.7087 79.4498C81.7687 81.3498 83.4287 84.4398 83.4287 84.4398L48.6887 84.0298Z" fill="#451A0D"/>
</g>
<defs>
<radialGradient id="paint0_radial_297_904" cx="0" cy="0" r="1" gradientUnits="userSpaceOnUse" gradientTransform="translate(66.6286 83.1111) rotate(94.888) scale(8.17301 23.0254)">
<stop stop-color="#451A0D"/>
<stop offset="1" stop-color="#451A0D"/>
</radialGradient>
<clipPath id="clip0_297_904">
<rect width="46.05" height="16.3456" fill="white" transform="translate(44.3928 73) rotate(4.88798)"/>
</clipPath>
<clipPath id="clip1_297_904">
<rect width="55" height="50" fill="white" transform="translate(56 24.2783) rotate(-7.60436)"/>
</clipPath>
<clipPath id="clip2_297_904">
<rect width="72" height="60" fill="white" transform="matrix(-0.925896 -0.377779 -0.377779 0.925896 89.3312 27.2002)"/>
</clipPath>
<clipPath id="clip3_297_904">
<rect width="34.74" height="7.67" fill="white" transform="translate(48.6887 76.7598)"/>
</clipPath>
</defs>
</svg>
