<svg width="45" height="44" viewBox="0 0 45 44" fill="none" xmlns="http://www.w3.org/2000/svg">
<g clip-path="url(#clip0_3002_3412)">
<path d="M28.1128 38.4582L36.4348 28.9106C37.3785 27.8881 37.2708 26.2662 36.2247 25.3437C35.6972 24.8785 35.0311 24.672 34.3812 24.7142L35.6496 23.2588C36.6167 22.2111 36.4242 20.5968 35.4329 19.7003C34.9106 19.2279 34.2471 19.0206 33.5989 19.0621L33.6136 19.0452C34.5882 17.993 34.4681 16.3572 33.4252 15.433C32.3761 14.4888 30.761 14.6104 29.8421 15.667C29.8417 15.6675 29.8412 15.668 29.8407 15.6685L29.4258 16.1427C29.3751 15.5074 29.0923 14.8897 28.5905 14.436L28.5813 14.4277L28.5719 14.4196C27.5067 13.5032 25.9162 13.5973 24.9869 14.6656C24.9864 14.6662 24.9859 14.6668 24.9854 14.6674L17.3547 23.3764L18.0138 21.5192L18.0138 21.5192L18.0164 21.5119C18.3512 20.5445 18.2437 19.466 17.7113 18.5821L17.2231 17.7092L17.2187 17.7015L17.2142 17.6938C17.0007 17.3275 16.6873 17.029 16.3099 16.8344C15.9323 16.6398 15.507 16.5574 15.0838 16.5976C14.6607 16.6378 14.2585 16.7987 13.9244 17.0604C13.5904 17.3221 13.3383 17.6734 13.1966 18.0726C13.1966 18.0727 13.1965 18.0729 13.1965 18.073L9.78384 27.6474L9.78337 27.6487C9.05775 29.6937 8.95919 31.911 9.50031 34.013C10.0414 36.1146 11.1972 38.005 12.819 39.438C13.8855 40.3858 15.1274 41.113 16.4738 41.5773C17.8209 42.0419 19.2459 42.2343 20.6671 42.1433C22.0883 42.0524 23.4775 41.6799 24.7552 41.0474C26.0328 40.4149 27.1736 39.535 28.1126 38.4584L28.1128 38.4582ZM18.4296 19.1691L18.9175 20.9717L20.1474 19.5665L24.6957 14.3697C24.6961 14.3692 24.6965 14.3688 24.6969 14.3684C25.0005 14.0245 25.3566 13.7602 25.7089 13.6203L26.0707 13.4766L26.2402 13.1261L26.8469 11.8711C26.9948 11.5721 27.0822 11.2469 27.1043 10.9143C27.1266 10.5794 27.0823 10.2433 26.974 9.92559C26.8656 9.60789 26.6952 9.31469 26.4724 9.06337L25.7352 9.71689L26.4724 9.06336C26.25 8.81246 25.9797 8.6083 25.6772 8.46319C25.0859 8.17792 24.408 8.13325 23.785 8.33787L23.8034 8.30008L23.8065 8.29367L23.8096 8.28723C24.0945 7.67964 24.1302 6.98399 23.9092 6.35043C23.6885 5.71784 23.2288 5.19589 22.6269 4.8995C22.3282 4.75064 22.0028 4.66265 21.6696 4.64085C21.335 4.61897 20.9996 4.66428 20.6829 4.77399L21.0086 5.71422L20.6829 4.77399C20.3662 4.88371 20.0747 5.05554 19.8253 5.27914L20.4928 6.02376L19.8253 5.27914C19.5767 5.50198 19.3748 5.77177 19.2308 6.07272L18.9549 6.64259C18.7329 6.0258 18.2821 5.51635 17.6935 5.22345C17.3939 5.07413 17.0677 4.98596 16.7336 4.96429C16.3993 4.94261 16.0642 4.98796 15.7477 5.0976L16.0733 6.03778L15.7477 5.0976C15.4312 5.20723 15.1399 5.37886 14.8905 5.60217C14.6421 5.82462 14.4402 6.09393 14.296 6.39437L9.22915 16.8122L9.36715 14.8852C9.45609 13.8444 9.04364 12.8379 8.34295 12.1318L7.60583 11.389L7.59018 11.3732L7.57385 11.3582C6.21932 10.1093 3.97844 10.9404 3.83193 12.8227C3.83192 12.823 3.8319 12.8232 3.83188 12.8235L3.03077 22.9793L3.03016 22.9871L3.02967 22.9948C2.80048 26.6192 4.38639 30.0871 7.17926 32.2603L8.84057 33.553L8.79311 31.4485C8.76362 30.1407 8.95538 28.7922 9.4094 27.4923C9.40972 27.4914 9.41004 27.4905 9.41037 27.4895L12.8213 17.9201C12.8213 17.9201 12.8213 17.9201 12.8213 17.9201C13.1303 17.0551 13.8513 16.4538 14.7462 16.2494L15.2146 16.1425L15.2159 16.1397L15.7335 16.228C16.4965 16.3581 17.1667 16.7931 17.6088 17.4793L18.0937 17.167L18.5894 17.2811L18.2707 17.9389L18.0667 18.3598L18.259 18.7862C18.3092 18.8974 18.3434 18.9691 18.3677 19.02C18.4033 19.0947 18.4176 19.1246 18.4296 19.1691Z" fill="#FFEAC1" stroke="#553628" stroke-width="2"/>
</g>
<path d="M38.2646 4.51807L35.0114 8.67412" stroke="white" stroke-width="2" stroke-miterlimit="10" stroke-linecap="round"/>
<path d="M41.3163 10.1251L36.7747 10.9382" stroke="white" stroke-width="2" stroke-miterlimit="10" stroke-linecap="round"/>
<path d="M32.6729 3.28931L32.489 7.01841" stroke="white" stroke-width="2" stroke-miterlimit="10" stroke-linecap="round"/>
<defs>
<clipPath id="clip0_3002_3412">
<rect width="40.0909" height="40.1143" fill="white" transform="translate(0.571289 3.34326)"/>
</clipPath>
</defs>
</svg>
