<svg width="247" height="80" viewBox="0 0 247 80" fill="none" xmlns="http://www.w3.org/2000/svg">
<path fill-rule="evenodd" clip-rule="evenodd" d="M246 27.6351C245.965 19.3806 239.263 12.7 231 12.7H16C7.71573 12.7 1 19.4157 1 27.6999V62.7654C1.03523 71.0196 7.73739 77.7 15.9999 77.7H231C239.284 77.7 246 70.9843 246 62.7V27.6351Z" fill="#E4BB0B"/>
<path fill-rule="evenodd" clip-rule="evenodd" d="M16 1H231C239.284 1 246 7.71573 246 16V64C246 64.0306 246 64.0612 246 64.0917V19.8351C245.965 11.5807 239.262 4.9 231 4.9H15.9999C7.7374 4.9 1.03523 11.5804 1 19.8346V16C1 7.71573 7.71573 1 16 1Z" fill="#FFEC9D"/>
<path fill-rule="evenodd" clip-rule="evenodd" d="M246 19.835C245.965 11.5806 239.263 4.8999 231 4.8999H16C7.71573 4.8999 1 11.6156 1 19.8999V54.9654C1.03523 63.2196 7.73739 69.9 15.9999 69.9H231C239.284 69.9 246 63.1843 246 54.9V19.835Z" fill="#FCCC00"/>
<path d="M231 1H16C7.71573 1 1 7.71573 1 16V64C1 72.2843 7.71572 79 16 79H231C239.284 79 246 72.2843 246 64V16C246 7.71573 239.284 1 231 1Z" stroke="#382710" stroke-width="2"/>
</svg>
